{
  "accessors": [
    {
      "bufferView": 2,
      "componentType": 5126,
      "count": 65532,
      "max": [
        3.0304338932037354,
        -9.2168188095092773,
        -4.7471590042114258
      ],
      "min": [
        -1.0131649971008301,
        -21.288450241088867,
        -7.8569521903991699
      ],
      "type": "VEC3"
    },
    {
      "bufferView": 2,
      "byteOffset": 786384,
      "componentType": 5126,
      "count": 65532,
      "max": [
        0.99999195337295532,
        0.99999839067459106,
        0.99999707937240601
      ],
      "min": [
        -0.99999284744262695,
        -0.9999992847442627,
        -0.99999475479125977
      ],
      "type": "VEC3"
    },
    {
      "bufferView": 1,
      "componentType": 5126,
      "count": 65532,
      "max": [
        0.99980700016021729,
        0.98376500606536865
      ],
      "min": [
        0.00012199999764561653,
        0.0058559998869895935
      ],
      "type": "VEC2"
    },
    {
      "bufferView": 0,
      "componentType": 5125,
      "count": 298932,
      "max": [
        65531
      ],
      "min": [
        0
      ],
      "type": "SCALAR"
    },
    {
      "bufferView": 2,
      "byteOffset": 1572768,
      "componentType": 5126,
      "count": 65532,
      "max": [
        3.0672018527984619,
        -9.2168188095092773,
        -4.5969810485839844
      ],
      "min": [
        -1.9509968757629395,
        -17.277084350585938,
        -7.8688836097717285
      ],
      "type": "VEC3"
    },
    {
      "bufferView": 2,
      "byteOffset": 2359152,
      "componentType": 5126,
      "count": 65532,
      "max": [
        0.99993628263473511,
        1,
        0.99998509883880615
      ],
      "min": [
        -0.99999743700027466,
        -0.99993956089019775,
        -0.99999457597732544
      ],
      "type": "VEC3"
    },
    {
      "bufferView": 1,
      "byteOffset": 524256,
      "componentType": 5126,
      "count": 65532,
      "max": [
        0.99978601932525635,
        0.98376500606536865
      ],
      "min": [
        0.00012199999764561653,
        0.00038099999073892832
      ],
      "type": "VEC2"
    },
    {
      "bufferView": 0,
      "byteOffset": 1195728,
      "componentType": 5125,
      "count": 298071,
      "max": [
        65531
      ],
      "min": [
        0
      ],
      "type": "SCALAR"
    },
    {
      "bufferView": 2,
      "byteOffset": 3145536,
      "componentType": 5126,
      "count": 65533,
      "max": [
        3.3444967269897461,
        -10.967168807983398,
        -4.7118320465087891
      ],
      "min": [
        -2.3040084838867188,
        -21.584115982055664,
        -7.8530597686767578
      ],
      "type": "VEC3"
    },
    {
      "bufferView": 2,
      "byteOffset": 3931932,
      "componentType": 5126,
      "count": 65533,
      "max": [
        0.99999845027923584,
        0.99968379735946655,
        0.99999266862869263
      ],
      "min": [
        -0.99999970197677612,
        -0.99993956089019775,
        -0.99992120265960693
      ],
      "type": "VEC3"
    },
    {
      "bufferView": 1,
      "byteOffset": 1048512,
      "componentType": 5126,
      "count": 65533,
      "max": [
        0.99971497058868408,
        0.9835209846496582
      ],
      "min": [
        0.00012199999764561653,
        0.00082199997268617153
      ],
      "type": "VEC2"
    },
    {
      "bufferView": 0,
      "byteOffset": 2388012,
      "componentType": 5125,
      "count": 263700,
      "max": [
        65532
      ],
      "min": [
        0
      ],
      "type": "SCALAR"
    },
    {
      "bufferView": 2,
      "byteOffset": 4718328,
      "componentType": 5126,
      "count": 65532,
      "max": [
        3.0734176635742188,
        -9.2827739715576172,
        -4.6216907501220703
      ],
      "min": [
        -2.2814059257507324,
        -21.55461311340332,
        -7.919069766998291
      ],
      "type": "VEC3"
    },
    {
      "bufferView": 2,
      "byteOffset": 5504712,
      "componentType": 5126,
      "count": 65532,
      "max": [
        0.99999845027923584,
        0.99986284971237183,
        0.99999850988388062
      ],
      "min": [
        -0.99997794628143311,
        -0.99970883131027222,
        -0.99999535083770752
      ],
      "type": "VEC3"
    },
    {
      "bufferView": 1,
      "byteOffset": 1572776,
      "componentType": 5126,
      "count": 65532,
      "max": [
        0.99963897466659546,
        0.9835209846496582
      ],
      "min": [
        0.00012199999764561653,
        0.0002570000069681555
      ],
      "type": "VEC2"
    },
    {
      "bufferView": 0,
      "byteOffset": 3442812,
      "componentType": 5125,
      "count": 284973,
      "max": [
        65531
      ],
      "min": [
        0
      ],
      "type": "SCALAR"
    },
    {
      "bufferView": 2,
      "byteOffset": 6291096,
      "componentType": 5126,
      "count": 65532,
      "max": [
        3.663205623626709,
        -9.2341194152832031,
        -4.5253820419311523
      ],
      "min": [
        -2.3046267032623291,
        -21.24403190612793,
        -7.9179496765136719
      ],
      "type": "VEC3"
    },
    {
      "bufferView": 2,
      "byteOffset": 7077480,
      "componentType": 5126,
      "count": 65532,
      "max": [
        0.99996274709701538,
        0.99999856948852539,
        0.99999749660491943
      ],
      "min": [
        -0.99999147653579712,
        -0.99994868040084839,
        -0.99994641542434692
      ],
      "type": "VEC3"
    },
    {
      "bufferView": 1,
      "byteOffset": 2097032,
      "componentType": 5126,
      "count": 65532,
      "max": [
        0.99974697828292847,
        0.9840090274810791
      ],
      "min": [
        0.00012199999764561653,
        0.031798999756574631
      ],
      "type": "VEC2"
    },
    {
      "bufferView": 0,
      "byteOffset": 4582704,
      "componentType": 5125,
      "count": 261480,
      "max": [
        65531
      ],
      "min": [
        0
      ],
      "type": "SCALAR"
    },
    {
      "bufferView": 2,
      "byteOffset": 7863864,
      "componentType": 5126,
      "count": 8683,
      "max": [
        3.663205623626709,
        -15.844417572021484,
        -4.8836531639099121
      ],
      "min": [
        -2.074185848236084,
        -21.582782745361328,
        -7.3307418823242188
      ],
      "type": "VEC3"
    },
    {
      "bufferView": 2,
      "byteOffset": 7968060,
      "componentType": 5126,
      "count": 8683,
      "max": [
        0.99960511922836304,
        0.93902546167373657,
        0.99996459484100342
      ],
      "min": [
        -0.99991458654403687,
        -0.99933129549026489,
        -0.99936491250991821
      ],
      "type": "VEC3"
    },
    {
      "bufferView": 1,
      "byteOffset": 2621288,
      "componentType": 5126,
      "count": 8683,
      "max": [
        0.99700599908828735,
        0.98376500606536865
      ],
      "min": [
        0.00012199999764561653,
        0.012025999836623669
      ],
      "type": "VEC2"
    },
    {
      "bufferView": 0,
      "byteOffset": 5628624,
      "componentType": 5125,
      "count": 21972,
      "max": [
        8682
      ],
      "min": [
        0
      ],
      "type": "SCALAR"
    },
    {
      "bufferView": 2,
      "byteOffset": 8072256,
      "componentType": 5126,
      "count": 7051,
      "max": [
        3.035315990447998,
        -9.2168169021606445,
        -4.6412129402160645
      ],
      "min": [
        -1.0140429735183716,
        -9.2168188095092773,
        -7.8604116439819336
      ],
      "type": "VEC3"
    },
    {
      "bufferView": 2,
      "byteOffset": 8156868,
      "componentType": 5126,
      "count": 7051,
      "max": [
        0.99811840057373047,
        1,
        0.99974286556243896
      ],
      "min": [
        -0.99585556983947754,
        -0.53143811225891113,
        -0.99839204549789429
      ],
      "type": "VEC3"
    },
    {
      "bufferView": 1,
      "byteOffset": 2690752,
      "componentType": 5126,
      "count": 7051,
      "max": [
        0,
        0
      ],
      "min": [
        0,
        0
      ],
      "type": "VEC2"
    },
    {
      "bufferView": 0,
      "byteOffset": 5716512,
      "componentType": 5125,
      "count": 39876,
      "max": [
        7050
      ],
      "min": [
        0
      ],
      "type": "SCALAR"
    }
  ],
  "asset": {
    "extras": {
      "author": "noe-3d.at (https://sketchfab.com/www.noe-3d.at)",
      "license": "CC-BY-4.0 (http://creativecommons.org/licenses/by/4.0/)",
      "source": "https://sketchfab.com/3d-models/engel-f48198cd16264e1ca44fb21cc14a3759",
      "title": "Engel"
    },
    "generator": "Sketchfab-10.33.2",
    "version": "2.0"
  },
  "bufferViews": [
    {
      "buffer": 0,
      "byteLength": 5876016,
      "byteOffset": 0,
      "name": "floatBufferViews",
      "target": 34963
    },
    {
      "buffer": 0,
      "byteLength": 2747160,
      "byteOffset": 5876016,
      "byteStride": 8,
      "name": "floatBufferViews",
      "target": 34962
    },
    {
      "buffer": 0,
      "byteLength": 8241480,
      "byteOffset": 8623176,
      "byteStride": 12,
      "name": "floatBufferViews",
      "target": 34962
    }
  ],
  "buffers": [
    {
      "byteLength": 16864656,
      "uri": "scene.bin"
    }
  ],
  "images": [
    {
      "uri": "textures/Engel_O_Material_u1_v1_baseColor.png"
    }
  ],
  "materials": [
    {
      "doubleSided": true,
      "emissiveFactor": [
        0,
        0,
        0
      ],
      "name": "Engel_O_Material_u1_v1",
      "pbrMetallicRoughness": {
        "baseColorFactor": [
          1,
          1,
          1,
          1
        ],
        "baseColorTexture": {
          "index": 0,
          "texCoord": 0
        },
        "metallicFactor": 0,
        "roughnessFactor": 1
      }
    }
  ],
  "meshes": [
    {
      "primitives": [
        {
          "attributes": {
            "NORMAL": 1,
            "POSITION": 0,
            "TEXCOORD_0": 2
          },
          "indices": 3,
          "material": 0,
          "mode": 4
        }
      ]
    },
    {
      "primitives": [
        {
          "attributes": {
            "NORMAL": 5,
            "POSITION": 4,
            "TEXCOORD_0": 6
          },
          "indices": 7,
          "material": 0,
          "mode": 4
        }
      ]
    },
    {
      "primitives": [
        {
          "attributes": {
            "NORMAL": 9,
            "POSITION": 8,
            "TEXCOORD_0": 10
          },
          "indices": 11,
          "material": 0,
          "mode": 4
        }
      ]
    },
    {
      "primitives": [
        {
          "attributes": {
            "NORMAL": 13,
            "POSITION": 12,
            "TEXCOORD_0": 14
          },
          "indices": 15,
          "material": 0,
          "mode": 4
        }
      ]
    },
    {
      "primitives": [
        {
          "attributes": {
            "NORMAL": 17,
            "POSITION": 16,
            "TEXCOORD_0": 18
          },
          "indices": 19,
          "material": 0,
          "mode": 4
        }
      ]
    },
    {
      "primitives": [
        {
          "attributes": {
            "NORMAL": 21,
            "POSITION": 20,
            "TEXCOORD_0": 22
          },
          "indices": 23,
          "material": 0,
          "mode": 4
        }
      ]
    },
    {
      "primitives": [
        {
          "attributes": {
            "NORMAL": 25,
            "POSITION": 24,
            "TEXCOORD_0": 26
          },
          "indices": 27,
          "material": 0,
          "mode": 4
        }
      ]
    }
  ],
  "nodes": [
    {
      "children": [
        1
      ],
      "name": "RootNode (gltf orientation matrix)",
      "rotation": [
        -0.70710678118654746,
        -0,
        -0,
        0.70710678118654757
      ]
    },
    {
      "children": [
        2
      ],
      "matrix": [
        0.15892323839683531,
        0.0034492215384047953,
        0.00098605257310615396,
        0,
        0.0010228818062138142,
        -0.001688844213912008,
        -0.15895146435140894,
        0,
        -0.003438479580050724,
        0.15891732601158726,
        -0.0017106088267947878,
        0,
        -0.035320494323968887,
        -9.3583831787109375,
        -21.692655563354492,
        1
      ],
      "name": "RootNode (model correction matrix)"
    },
    {
      "children": [
        3,
        4,
        5,
        6,
        7,
        8,
        9
      ],
      "name": "Engel_C.obj.cleaner.materialmerger.gles"
    },
    {
      "mesh": 0,
      "name": ""
    },
    {
      "mesh": 1,
      "name": ""
    },
    {
      "mesh": 2,
      "name": ""
    },
    {
      "mesh": 3,
      "name": ""
    },
    {
      "mesh": 4,
      "name": ""
    },
    {
      "mesh": 5,
      "name": ""
    },
    {
      "mesh": 6,
      "name": ""
    }
  ],
  "samplers": [
    {
      "magFilter": 9729,
      "minFilter": 9987,
      "wrapS": 10497,
      "wrapT": 10497
    }
  ],
  "scene": 0,
  "scenes": [
    {
      "name": "OSG_Scene",
      "nodes": [
        0
      ]
    }
  ],
  "textures": [
    {
      "sampler": 0,
      "source": 0
    }
  ]
}

